<svg width="54" height="54" viewBox="0 0 54 54" fill="none" xmlns="http://www.w3.org/2000/svg">
<path d="M15.3634 15.3633C18.8776 11.849 18.8776 6.14952 15.3634 2.6353C11.8492 -0.878921 6.14964 -0.878921 2.63542 2.6353C-0.878799 6.14952 -0.878799 11.849 2.63542 15.3633C6.15104 18.8789 11.8492 18.8789 15.3634 15.3633ZM51.3634 38.6353C47.8492 35.1211 42.1496 35.1211 38.6354 38.6353C35.1212 42.1495 35.1212 47.849 38.6354 51.3633C42.1496 54.8775 47.8492 54.8775 51.3634 51.3633C54.879 47.849 54.879 42.1509 51.3634 38.6353ZM51.0906 6.09045L47.9096 2.90952C46.1518 1.1517 43.3028 1.1517 41.5464 2.90952L2.90964 41.5462C1.15183 43.304 1.15183 46.1531 2.90964 47.9095L6.09058 51.0905C7.84839 52.8483 10.6975 52.8483 12.4539 51.0905L51.0906 12.4537C52.8484 10.6973 52.8484 7.84827 51.0906 6.09045Z" fill="#FD2D2D"/>
</svg>
