<svg width="65" height="52" viewBox="0 0 65 52" fill="none" xmlns="http://www.w3.org/2000/svg">
<path d="M3.7375 19.5H61.2625C63.3242 19.5 65 17.8242 65 15.7625C65 15.0211 64.7766 14.3 64.3703 13.6906L56.6922 2.17344C55.7883 0.8125 54.275 0 52.6398 0H12.3602C10.7352 0 9.21172 0.8125 8.30781 2.17344L0.629687 13.6805C0.223437 14.3 0 15.0211 0 15.7523C0 17.8242 1.67578 19.5 3.7375 19.5ZM6.5 22.75V47.125C6.5 49.8164 8.68359 52 11.375 52H34.125C36.8164 52 39 49.8164 39 47.125V22.75H32.5V39H13V22.75H6.5ZM52 22.75V48.75C52 50.5477 53.4523 52 55.25 52C57.0477 52 58.5 50.5477 58.5 48.75V22.75H52Z" fill="#FD2D2D"/>
</svg>
