<svg width="42" height="42" viewBox="0 0 42 42" fill="none" xmlns="http://www.w3.org/2000/svg">
<path d="M8.58333 4.41667C8.58333 5.52174 8.14435 6.58154 7.36295 7.36295C6.58154 8.14435 5.52174 8.58333 4.41667 8.58333C3.3116 8.58333 2.25179 8.14435 1.47039 7.36295C0.688987 6.58154 0.25 5.52174 0.25 4.41667C0.25 3.3116 0.688987 2.25179 1.47039 1.47039C2.25179 0.688987 3.3116 0.25 4.41667 0.25C5.52174 0.25 6.58154 0.688987 7.36295 1.47039C8.14435 2.25179 8.58333 3.3116 8.58333 4.41667ZM37.75 4.41667C37.75 5.52174 37.311 6.58154 36.5296 7.36295C35.7482 8.14435 34.6884 8.58333 33.5833 8.58333C32.4783 8.58333 31.4185 8.14435 30.6371 7.36295C29.8557 6.58154 29.4167 5.52174 29.4167 4.41667C29.4167 3.3116 29.8557 2.25179 30.6371 1.47039C31.4185 0.688987 32.4783 0.25 33.5833 0.25C34.6884 0.25 35.7482 0.688987 36.5296 1.47039C37.311 2.25179 37.75 3.3116 37.75 4.41667ZM8.58333 33.5833C8.58333 34.6884 8.14435 35.7482 7.36295 36.5296C6.58154 37.311 5.52174 37.75 4.41667 37.75C3.3116 37.75 2.25179 37.311 1.47039 36.5296C0.688987 35.7482 0.25 34.6884 0.25 33.5833C0.25 32.4783 0.688987 31.4185 1.47039 30.6371C2.25179 29.8557 3.3116 29.4167 4.41667 29.4167C5.52174 29.4167 6.58154 29.8557 7.36295 30.6371C8.14435 31.4185 8.58333 32.4783 8.58333 33.5833ZM10.6667 4.41667C10.6667 5.14583 10.5417 5.84792 10.3125 6.5H20.0417C20.3179 6.5 20.5829 6.60975 20.7782 6.8051C20.9736 7.00045 21.0833 7.2654 21.0833 7.54167V12.75H17.9583C16.577 12.75 15.2522 13.2987 14.2755 14.2755C13.2987 15.2522 12.75 16.577 12.75 17.9583V21.0833H7.54167C7.2654 21.0833 7.00045 20.9736 6.8051 20.7782C6.60975 20.5829 6.5 20.3179 6.5 20.0417V10.3125C5.15214 10.7899 3.68119 10.7899 2.33333 10.3125V20.0417C2.33333 21.423 2.88207 22.7478 3.85882 23.7245C4.83557 24.7013 6.16033 25.25 7.54167 25.25H12.75V30.4583C12.75 31.8389 13.2982 33.1631 14.274 34.1397C15.2499 35.1163 16.5736 35.6656 17.9542 35.6667C17.2669 34.0164 16.9142 32.246 16.9167 30.4583V17.9583C16.9167 17.6821 17.0264 17.4171 17.2218 17.2218C17.4171 17.0264 17.6821 16.9167 17.9583 16.9167H30.4583C32.3042 16.9167 34.0625 17.2854 35.6667 17.9542C35.6656 16.5736 35.1163 15.2499 34.1397 14.274C33.1631 13.2982 31.8389 12.75 30.4583 12.75H25.25V7.54167C25.25 6.16033 24.7013 4.83557 23.7245 3.85882C22.7478 2.88207 21.423 2.33333 20.0417 2.33333H10.3125C10.5417 2.98542 10.6667 3.6875 10.6667 4.41667ZM41.9167 30.4583C41.9167 33.4973 40.7095 36.4117 38.5606 38.5606C36.4117 40.7095 33.4973 41.9167 30.4583 41.9167C27.4194 41.9167 24.5049 40.7095 22.3561 38.5606C20.2072 36.4117 19 33.4973 19 30.4583C19 27.4194 20.2072 24.5049 22.3561 22.3561C24.5049 20.2072 27.4194 19 30.4583 19C33.4973 19 36.4117 20.2072 38.5606 22.3561C40.7095 24.5049 41.9167 27.4194 41.9167 30.4583ZM26.7229 27.3333L28.0708 25.9875C28.2664 25.7919 28.3763 25.5266 28.3763 25.25C28.3763 24.9734 28.2664 24.7081 28.0708 24.5125C27.8752 24.3169 27.61 24.207 27.3333 24.207C27.0567 24.207 26.7914 24.3169 26.5958 24.5125L23.4708 27.6375C23.3738 27.7343 23.2969 27.8492 23.2444 27.9758C23.1918 28.1023 23.1648 28.238 23.1648 28.375C23.1648 28.512 23.1918 28.6477 23.2444 28.7742C23.2969 28.9008 23.3738 29.0157 23.4708 29.1125L26.5958 32.2375C26.7914 32.4331 27.0567 32.543 27.3333 32.543C27.61 32.543 27.8752 32.4331 28.0708 32.2375C28.2664 32.0419 28.3763 31.7766 28.3763 31.5C28.3763 31.2234 28.2664 30.9581 28.0708 30.7625L26.7229 29.4167H30.9792C31.5947 29.4167 32.2043 29.5379 32.773 29.7735C33.3417 30.0091 33.8585 30.3543 34.2937 30.7896C34.729 31.2249 35.0743 31.7416 35.3099 32.3103C35.5454 32.8791 35.6667 33.4886 35.6667 34.1042V34.625C35.6667 34.9013 35.7764 35.1662 35.9718 35.3616C36.1671 35.5569 36.4321 35.6667 36.7083 35.6667C36.9846 35.6667 37.2496 35.5569 37.4449 35.3616C37.6403 35.1662 37.75 34.9013 37.75 34.625V34.1042C37.75 32.3084 37.0367 30.5862 35.7669 29.3165C34.4971 28.0467 32.7749 27.3333 30.9792 27.3333H26.7229Z" fill="#5E0909"/>
</svg>
