<svg width="50" height="50" viewBox="0 0 50 50" fill="none" xmlns="http://www.w3.org/2000/svg">
<path fill-rule="evenodd" clip-rule="evenodd" d="M22.0542 4.37502C22.7917 3.63851 23.7784 3.20514 24.8197 3.1604C25.861 3.11566 26.8813 3.46281 27.6792 4.13336L27.9459 4.37711L31.9042 8.33336H37.5001C38.5509 8.33355 39.5629 8.7308 40.3332 9.44552C41.1036 10.1602 41.5754 11.1396 41.6542 12.1875L41.6667 12.5V18.0959L45.6251 22.0542C46.3622 22.7918 46.7959 23.7789 46.8406 24.8207C46.8854 25.8625 46.5379 26.8832 45.8667 27.6813L45.623 27.9459L41.6646 31.9042V37.5C41.665 38.5512 41.268 39.5637 40.5532 40.3345C39.8384 41.1053 38.8587 41.5774 37.8105 41.6563L37.5001 41.6667H31.9063L27.948 45.625C27.2104 46.3621 26.2232 46.7959 25.1815 46.8406C24.1397 46.8853 23.119 46.5378 22.3209 45.8667L22.0563 45.625L18.098 41.6667H12.5001C11.4489 41.667 10.4364 41.27 9.66559 40.5552C8.89479 39.8405 8.42265 38.8608 8.34381 37.8125L8.33339 37.5V31.9042L4.37506 27.9459C3.63796 27.2083 3.20422 26.2211 3.15948 25.1793C3.11474 24.1375 3.46225 23.1168 4.13339 22.3188L4.37506 22.0542L8.33339 18.0959V12.5C8.33359 11.4492 8.73083 10.4372 9.44555 9.66687C10.1603 8.89652 11.1397 8.42467 12.1876 8.34586L12.5001 8.33336H18.0959L22.0542 4.37502ZM31.4146 18.7146L22.573 27.5563L18.8896 23.8729C18.4987 23.4823 17.9686 23.263 17.416 23.2631C16.8633 23.2633 16.3334 23.4831 15.9428 23.874C15.5521 24.2649 15.3328 24.795 15.333 25.3476C15.3332 25.9003 15.5529 26.4302 15.9438 26.8209L20.9521 31.8292C21.165 32.0421 21.4176 32.211 21.6957 32.3262C21.9739 32.4415 22.2719 32.5008 22.573 32.5008C22.874 32.5008 23.1721 32.4415 23.4502 32.3262C23.7283 32.211 23.981 32.0421 24.1938 31.8292L34.3605 21.6604C34.74 21.2675 34.95 20.7413 34.9452 20.195C34.9405 19.6488 34.7214 19.1263 34.3351 18.74C33.9488 18.3537 33.4263 18.1346 32.8801 18.1299C32.3338 18.1251 31.8076 18.3351 31.4146 18.7146Z" fill="#5E0909"/>
</svg>
