<svg width="40" height="40" viewBox="0 0 40 40" fill="none" xmlns="http://www.w3.org/2000/svg">
<path d="M24.4458 9.56665L31.5208 2.48957C32.3173 1.706 33.3912 1.2689 34.5084 1.27347C35.6257 1.27804 36.696 1.72391 37.486 2.51396C38.2761 3.30401 38.7219 4.37424 38.7265 5.49153C38.7311 6.60882 38.294 7.68266 37.5104 8.47915L30.4333 15.5541L34.2625 34.6062C34.7521 37.0437 30.025 40.4396 28.7667 37.2104L23.1625 22.8271L15.8854 30.1041C16.2396 34.3562 16.3167 35.7708 13.3354 38.75L8.80417 31.1958L1.25 26.6646C4.22917 23.6833 5.64375 23.7583 9.89583 24.1146L17.1729 16.8396L2.78958 11.2333C-0.439583 9.97498 2.95625 5.24582 5.39375 5.73748L24.4458 9.56665Z" stroke="#5E0909" stroke-width="1.5" stroke-linecap="round" stroke-linejoin="round"/>
</svg>
